<mxfile host="65bd71144e">
    <diagram id="HIP3nbAZw_EuaXWnEj3U" name="Page-1">
        <mxGraphModel dx="247" dy="353" grid="1" gridSize="10" guides="1" tooltips="1" connect="1" arrows="1" fold="1" page="1" pageScale="1" pageWidth="850" pageHeight="1100" math="0" shadow="0">
            <root>
                <mxCell id="0"/>
                <mxCell id="1" parent="0"/>
                <mxCell id="7" value="http://ics2o.mths.ca" style="swimlane;whiteSpace=wrap;html=1;" parent="1" vertex="1">
                    <mxGeometry x="30" y="50" width="760" height="480" as="geometry"/>
                </mxCell>
                <mxCell id="8" value="" style="shape=image;imageAspect=0;aspect=fixed;verticalLabelPosition=bottom;verticalAlign=top;image=data:image/png,iVBORw0KGgoAAAANSUhEUgAAAVQAAADnCAMAAAB2ZV7oAAADAFBMVEX+/v7Bv/7v7v7f3/4XEv2SkP5kYf02Mf0LBf0MBv3e3t7u7u6/vf78/P6+vr4AAAB/f38PDw+enp7Ozs4/Pz+Ojo5fX18fHx9vb29PT08vLy+urq79/f4uKP3x8P6Qjv7Y1/5FQP3k4/4VEP3q6f7U0/5TT/0oIv1XU/3Ix/5ZVf00L/3u7f7Gxf6dm/58ef01MP0/Ov2Kh/7S0f5iX/1saP25t/6mo/4dGP22tP4WEf3Ozf43Mv3Kyf5/fP2Ihf5STv0kH/3y8f7i4f44M/0hHP34+P6Fgv66uP6urP6fnf7My/6+vP5lYf1WUv339/6vrf6Cf/2HhP5jYP2Bfv3T0v7JyP6LiP6gnv5UUP0mIf2Ylv6qqP6Egf6tq/7NzP7c3P7Z2P6wrv5AO/3Hxv48N/0fGv3Pzv44ODjX1v7q6upcWP0+Of2kof6joP4ZGRnKysrAwMDCwsLFxcVAQEBFRUVaWlr5+fl0dHTs7OxcXFyXl5dUVFQpKSno6OggICD29vbS0tK7u7thYWGqqqo8PDx8fHzl5eV2cv1TTv3BwP6AfP6Bfv50cf1vbP0QCv2Aff05NP1mYv309P55dv0wK/1gXf2Tkf64tf56d/0lIP1qZv1aVv5rZ/0tJ/3e3v7Dwv5va/2Vk/4vKv2PjP7w7/67uf5bV/14df06Nf17eP1hXv3y8v7n5v5wbP29u/4jHv2lov7V1P7p6P6enP6Gg/7s6/5KRv21s/4iHf1BPP1nY/3R0P6Mif5EP/3d3f5JRf2ysP7Lyv4cF/3h4P719f5DPv329v75+f47Nv3m5f4qJP3o5/4yLf1zb/2pp/6Ukv5eWv13c/3FxP5pZf1CPf3j4v6amP4aFf1MSP3Avv7g3/4sJv11cf0YE/0KBP3Cwf49OP1fXP3t7P4xLP2opf7Ew/7Z2f5GQv3r6v5IRP0RC/36+v7l5P5RTf3W1f7b2/4zLv3z8/77+/4OCP1OSv0UDv10cP1VUf2xr/4nIv2ioP7Qz/5GQf2DgP0JA/3SlTLsAAAaC0lEQVR42uzd+XcUZboH8O9bVd1dfU7nPwg7RHZQFlFg1IswzKg4OoqD41G86vV4Zvk77npmPWfunR9c5l5nXABlUBhlkV1QQDYJCQwhhC0hCWTppLpr+d6brk4lnbaS6qrqbk5ufX7ISdL56cnzPt1V7/s8hUgkEolEIpFIJBKJRCKRSCQSiYxXkpAQCZmgQCQwIQt5tKBmYMiIjC5jWRkMkvQshUUtMyyoumVgkBTLEhY1AYew9KhCjJBgQmE/cuS4Qi2Ti1w2JuWDqigKdeQYcVIT9uuDkdSYpRJFtYBOHUgoGBCn0i8jR8Sp6HZQNUlyXs9aMnIyGhUDAGKMQWY/IgUM3coSAzQnPyH3K8wHVQcsGvbrCV1yctr+XT8lwEBkOClBmiaH8jNuABnTyVnBgZ8p7B80+/e6SSWfs2YCkZEs6oBJ5MmWQmENVUwIZoA4DQxlMCwmdORplIF4tPwLxJhBjMQQXRYCDsGs0JUsHJKO4a/rjMs6dUSGkbKkotGAC8F+Mi7DVSxLaogUMgRGJ8sYlRF9oIpEIhHv/opI2OaxD5FwzX2YnIxIiHpSr/FNTkIkROf2sOE6pyASnpWdnNOIW0QkNMsXcl0HUMfriIRks8YVywH8kB8gEo7GLj68HgCmsguRULTsoDkVOavZjUhwPf/WwObHe5Czk/swfkh6fv9YFgNkDBBWBmX38oOsm4u8fXwC44asZE2aAGBxgGV/m1BMlNmdabz0nxh0iKsxbuimhBhRQKIFkZBRVte72MuzNzCoi1MxbuhalrSX/ACR398sN6mTrz10gG1ba2D7L87HeBFjf8ainbMD9MGg6hLKp73xW95MtX8ygUw/l+ro6Ug993PWYbzQEpASRcs/LsUoo3wOfst0K4DUYpWOJMYLoShMjAxgJktaKJ+XNvB4I3LWLmj7LJlMfta2YCEXYdwQcqX3L1cu5DoZI03ifYj4tV3jikUYkrE/FE/mvYj4U5tKMD2vBg6hWIoAgGnR7T+/ju3lza8wTH8MlgUAs6Nz6v7UnEkzkarBMKaAbgLA/fw7wiH///rvLHqfdS0oYGYQiwPAdE5AOCzirkGizL5Yx671KNTfj7iFAc9z4rgL6kHyIMqq8So3GBjByGYVCQOW8Af+ezQMkSPlg6rHZOQIG3Jk3TJQUfVkPcqpNc1vL6CYgG0pP/Tfo2EyR9hBzWap2OGjzQ68wizjqKQ0mS7r9b7Jw43tcHeEB/z1aBRnaj9kxSzKVFORYdFABfWqai/KZ+Mr7JSQJ6wBMuwbY4NWUPbXo1HIDpxGjEQNgIwKMtjWRgPlsmgdu67DZt8SU2jItG+M5T3Del89GsXLP/elaPnTQoV9ypMn+SnK5NUuancwnKxYyBDDrWTaV49G8fI3gASLlj9NQDYzqJxm3rnDZpRHywb+5jYKmAnAysY1HUOSvUF6NBwWTUNnHCNp1GVNkVAxPbwEXGIPyqDn8aNseLsHwxkUgKlYccbg2MHlYfRoWIxTiUsYSYorVHRUzkc8BZziRyFu0To6TO6djkLxBABJzn3jOEkrpB4NWXIZLoBKOsFrwDWeCHOL1lY7q5NdKYygxABYAujPwvEFj2I8+ZotQAu/Dn+L9vVHqR3DCDIFgHhWkrP9GHKePRg/7HDaoQ1ri9Y2dSYXvoSRBCUAcoIsqH1X+GeE4EzmDFB917gFALbwWmhbtM4ZtM79ALzVvm+4BcEdSTBxBNVmv0XZb1fhbtG2NvDwqlIWzD3IkTIxGX7dT5X3o9qcYtbD82Fu0bb/6w42p9rh3UW25q+VTOrwZ9tqdae6ehuq7Q6PIuco74S4RftyMzvnlv4hBIhRRn8c/izgK9Nf4QJU20l+6lysIjRvzOTxMyhJin9xPsX69AbVeZin8g1UWRuXI2cf2xCW61ep3UZpangJAOJZwMjAl9lc3I72xZyNKlOT39zu7r79zYnjJEIyt5PNN/zcggAQo4Bmwo8U+y4AuNDHFKpqJR19XIkwtKfu5V7RjlI9xBgAxBVmBXw4lFCfxoCn1cQhVNP3ePRq3/+5eurkv/N7CMPBw0xv93dbFwMkA77U8x4JA6R7WI9qWsGDTjC4AiF47GHOEfCjlwhg6nn1BdheUM9PRfWs4TI4lnENAts/hzNXwZdOzoJ/J7j3EGyH9vIEqucB/hiOH/MBBDV9Ax814E99kPqzi8nXMej1JHehGoo33H/AJQgoNYedr9bCn3NcCN/SXFKDQTVLmEbVPMKJcEzkIwhmW5t9Bs2nZfzS/5J7sANDOh7kA6iG4kNMEzgdAfRcb+D7j9fAh6D1Z+IEdRKGm6ROmIjq+AVPY5jT/AUC+OtvqM2FD8HrzyRenVgY5auchOqYycsY5jJnwr+NGufMQhD/4Lf+XCAbzqDAA2ryAqpiGlGA0+Db213UdiGY/+Yx+HGW5D2nL2PI5f+4xbOohsn8vPD8/eecHKDn7PMvENBp6vBhP3uf/pbsSz/1oxlSrTTjR0+l+8gm7kflOW0hzvn7+/wWonaxh1Ma2+FD8PpTa/KfIU+awuGmTDpLsxaVN4UzCs/fz+AU+CJ/znQrfHBWSYD68yIPbAPQvfT7s7suNTU1Xeqa/f2l3dh2gC+i8nhr5Pn7W4QfuzReFfDFWSU5h3kbpdr+vFqP71KvPr8dlXaddYXn7/2OiZk1h+s2FuSdd84qydnN//Fxvu79Tfgum97np6i0D/jDwvP3PsfEzK3jo88W5Z1HzirJmcHDKNGdpJrCd0upyTuoLKfR3jl/72tMTM3jjzL9dk9R3nnkrBJbH1GiK/zZGpcqveZnvILK6uZqDCN8jon5yuTebUV555mzSmwar5daw3610bVKb/wVr6Oi9nHn4JayLCT4GxNT82qaC1PFeeeZs0psOt9DKdY0N/16lCr966bmNaikJ7gPspJQdGSYVWR/Y2KMFdSmu+Sdd2Io73kVpfglP24ZpUq3fMxfopJW8xBiJmIJKBlo/b7GxFzQmNjvknf+fFxS/Tm2TN06apXeqi47hkpx3pP0RBwELNPPmJjG49zwGEYS8ETXYhIg4loGgDNYoY//CO9+zz3do1bp7j38PSpnPj+wO4zixvCgfsD58Gp6A/esgj9SImFl4zComRQAnBEgpdSf20zOGqNKz0ryNiqmjvMAyJC5iIClwTaPdZ57zm7y4tD1vmECTnfU2HTKECY0DTDjGGAPq1nKf4JnGp9o/+7MF8hrf4IaKuYWAcRNCEVSYjBjBdeuXrz8Gnn+k2GtDYDTHTW2fjOm6YBiDa6ST/JjlRbynPduhb5VbpnvWNXHj1Ahi3gTgJzNKhZ0RUlIyLvJRfBihsYJ/8IDg1GNKwQyhFcms5oSBy3AytoxtQeALfBcf7rnqPe5Z77jPnVONyrCuctnSLmvJY+JmXecM19uPcsJKQzIKDE63VFemJShU8oFVQFSE3i21S6C7IQ3P+XXknvmO6Sv+VNUxr2cjCLex8TMrcudQbvRxsUAICkxQac7amx2egoaCWsgHsBitt0osf6cU9QX3TK/wIuqcg4VwWlj7rG460n9nDvebgewlepaAGZWxCgkpztqbBnqiCuIZw2hWFircmup9ecdNhxyy/wChxr4DipBcDZceBgTc24Kd2zHgJo0FwBgjnC6ozylKqlDipMmsIDpGuTF+BA8MJjc5Zr5hXYlaaAC/u7Sb+BpTMzKOnY1wvYc25Aj6HRHeSSGnp7Uxucw6Ian+oMGvlPrmvmFat9hA8rN/dyEpzExy1dQ60Beip85QXW6o0r2GVNwPMgajOlvvPSVa+aP9NUl/g1lN5HPw8WYY2I2r2NiOQZ1MDmiO8qPJDvgmM0UxvLuRfUPrplf7A/qxXfhT/CzIB7GxDTOYef6WgzqYRLBJdlTSv0BdrNrYilJ1MXdZR5CDXzIpXC1lB+6t4m1NnDKVKAoUx3BM7WVF5HTATdv3VKXohRL1VtvlXcINXCAR0YdE+PeJjaHlYAx/JbakyjFkxp/W+Yh1DJXYBQrKLu2iZmsBNcpVLb17J2M0kzu5XoUPTo8zA7nej6DUTzDevc2sXmoPGcKla1mT9N7KNV7TXtqMChORaERbodzmisxipVM+24TK++Twm0vcNl0lGr6Mr6APINxSFkz3A7n3iRGlewdahOrtuIpVK2PqPNRuvnqI61OfhmAHO4Q6uXcAXfOmBinTSw4wwzjSeFOdWrehNJtanaKnsXwh1BbPIlROGNiJAMhEQzvSeE3mtTL8OOy2nQDORYFYGkI01F+ARdlGhMjKMUyIT0p/BSvHIEfR67wFHIMmnJGsRAST/MSwh8TI6gk2B/Kk8Iv0/fH+LduMZ/jmQRpSgjRn3kFLkIeE+MQzMCiHMKTwp88qj4Fv55Sjz4JmyEjVFv4DYqFPCamuKbKFAjuJ/xjC/xq+SN/gvK4hy0exsSEHlSDAoFtPqBeg3/X1AObUQ6tvOhtTEyIBPsljRICO03zd/DvdyZPoxyu8YS3MTEhEjSZzSCwGUw+hiAeS3IGyuAvTHkbExMugRDUcWcPgujZyTqUwSXWeBsTc/dZy2nnEMy5aVyL0N1hs9cxMXebTcfV3Qhqt3p8E8IW40Nex8Tcbf7EN99FUO++yT8hbG00vI6JucusmqZmEFxGnbYKIWOvvzEx1beE6S8R3JdpLkG4ZrEz6JgYWRgoJiS4k4XNAADJ/U8NA65eYvJZhOHZJF8KexBVfbAxMUaCpCIwEgXcWbSZACAo4MI04Wovt9QiDLVbuBehWshzwcbEJJSY0LOUSgqqLESMsXymypbsI6gZnt+McGw+zwxC9CWXBRwTw7i9a+Q8OcewrJgEUOB/iTt7FSmaKAy/p6r65yY++EAFAxUUr2ARBBNTr8B7EjRREcHEVEHMVNBIQwMTRURFkMXuruo6r9pF4bY7JTNswT5RD8OZ4DnFzDRV523IcmV1bjSkgwaCRF6fOjVhVpv3R0WtqgCwoTFBFqm22STdvOxvoxa3+5embhDVEWNivAv2z5NzFA29p1ukBjrHAULSc4Dp6OnnlVSSDBTEtD+qdM5xgnX0ziliTB8bzeFDyt0earHX8ULdIKqjHA1KLulbA7jOonXWxbRHSDGMBgNF2BlEB2UD6/1aqrNWKMIG6AjlCOMjRlooF6mdsxAOWPN0v7+Hetzr95/WDKLaO3JMzDR4utlwAIwFrGhcpAqjaksVKqBEpKp2NCup43KV90eVExAj3AiYJJVeVV3Emos8fRX1uHqaF1GLV7xzaNh4t5iYWZdCDsKA3wxkl6QGdvEXQShJqou/mVdSdbkyMe2PKoHF5AAgS42/GLDiLPc/oiYf93kWlQh8DRRG89eySzExE5c+uHFmC0gMbA0C00pVwKiVLJUGmAI2SFU2wPhHquuAmUlqBNAIDvLl8bsbqMuNd4+/1A6iKo/mZ9mlmBjnVGRkgPfBRm85YPaLVON8sCPnLDVwtOLiJql5fzRLHdhOMUmNbGzDBgf5wOufCq3flVz36To/VA2iKo/mr2XzROnPPxtgbkk/oSXZcgAF4kjXIEtd3ursJql5fzRLRfCuTVJNR7LFQU4+6q+VWr8zue5a/+gkavCNz7YYzU+yyzExRmYsmDm9tMiI4CBW7HaPjQ1T+qFamMX8fRd4/nup9TuT676fr5RsfJdPthjNz7KLMTH1UddMkVKa7OrfFFu/O7nuTc//UYFnPLXFaH6WXYyJqY9pHbuAzdzkgxfF1u9OrnvxgDdRAf7Iz8QzRkQs5N/5Gz+I40f4+S2Krd+CUt3bz5QaQVRjPgstDUlFCVnFxBwrzy/1l1Fu/RYU6y73l57jqNxnwEIcDzV5vYJXMTHHyzk+PIPSUP82lOvO+ApfAO+Z5rmCM+hiVANk1it4FRNzvHwl/7tSGOrfknLdLfIrduEne3fw0kYQhQH8m123jdD+B1ZRkIAIvXnwJCIK6kEEoSBe/IN6U6TiSUV6Kx7EqyJ4qBpFUwRNI6I00JLEVGJdk/1KMgQyxHXQ3Wa05HcQD/sujwcJmfne1srxC8pe3wBF59b1oFAmWFkTY1CCP5lMnPiF+vX8604SSfIzgpnm1/1VAAXaANRcvM8Ez3MaRk2w+cMReZ7xCfVr+ddlzsk/EU4gEJI89Ww4RcBqElB/taid4NX9g09shlFpLvxucVzZVZ9Qv1Ztneyp6/xaYBqBHPPjLtknyuEoh27RhkKdYNs7ZQlMmmNvB4DLC56f+IT6te6vOznnxSXQ0cs5aOgOnbJTUcaFz3tflAkWfeTuXuwdv8Gc/pnIEkouXSZ8Qv1a99cl6F4CwFJkpj/Qd5P3ANZTla7WqJ5gEWd0KivXxJjjcHG58l9y2C/Ur1dbN5ykg5LlRTrQ0B/kH6bYZ8OXnGARZ2q9ck3AmK18ZANSyxHjtk+oX6u2zo7zqAVlG5H8VqBFVGXrUXp4mN3H1KGyJsaIeaa3Aekwyjb/UL+eWtfG6CGk7TTnAy2ikqZ4uqoLLkXXlTUxRozwOlN9h7o9h5Dk2qtOQDLXHIGG/hpfdlcTTls95ZRySdCMlHKmepZnD0LSw/wZUHHD1NMXUf0ApD0eaAJ/u1llTYwRYzzeUV+ONISQDClvVto55hie5C17URHjBR5ywD11TYwJ3dHIpBqCYhdC0kUlizUZiXbjKd6wCxUZ5vGQC8bUNTEmjHOgH+rkXiEkV+po9g9wPPAiqpymqXlm1DUxBmSbI6NQdPJ7eLGHTlQb1e6u1wej9E3NqbErA2a5MgiFxSRCkqSFaoMrnMXjMQjUX4z1FsPjvbCmbrLeNvH/a11DPa21oqGhXmRGoyFkggINjaY+f4JCeAU0hEmU8hh00BAiwaJlFZsan1ZhEnRkViZkhUKA5wpCsuW9XM0utudHUMg/ISsWAzxXpORpNuLRgyn6Sb0x3dTaSX3FyqQK7wU21b0Vrot/0VTbK2dDYcsFe0LmPy0Z57AcrwD5nCVjoLjzHBuSnE/bE96t8ADr7m87Z9rjtq2F4ZciJQESIGqxLS9/cJAvk9smXW7vvrQ/2RK3U5GMZuzUSIOgRoMZPpAEkjrih0cyfSyDdD6aaeZCqMk1HA9SjcszfGUwmgRN5g5S48p6JTJLipRGTurDVNGSFLggRaV5ngbK40K67EJqnF7qCFyRJdJwPlJwzCSEIual6jgB9asj48A9pDrK4EqekwNXIrMlME040wxGuqAZRkw+biIDRkVGDply11Jtxh0hJ4NM+B5zGHIQZZZNQWq2FOFoxqvAWmhSZwNYysKoXVCZc8AqAAZKOOcUPU0DVSUETTrDtdR8LemziLcJ5IxvnoPUMBH1/LWOrXeQirwkKv0TGhRkThFNEBYeEtYTpcaiKQSRvpbKQskoEpOycBYIJmfARKkfJqLiTrAIv/Eeatk+820Vi1zH3+zz96UyDX4mPREHCsr0DGPJWAFgckp41TpKBZCzLOeYlboldRIMEE9SDZ2BPEr1xcxx3AmKuBuZ6GUe6tynXqxQJFZWbvb5OWPqnC27polrUcIKk03EHbllZ47OfKazjyvIZfmyi4kbVd6WyrOCnqSiFE6rIBVCaV6QwZ2g4vaTyh2/dECflMoYK8uPn1THvkjqOr3zTH4UgFHhlvtRQJyR2dhqbSxOQC6IhLkllQkiZcWT1MwJNUWpxl/kcA+ubZmcwXG/gbknqSxkjY6sXlcVYXrOOczSnq2aog4fzJwBz13Og1TNdMwHjWPPHerfHVP45dxQzjJ42MXcz6uiMZ/3a9aZMEo/T0S9v1RNQlhiiLd5/fhPpARZWFLndVURJ4jyMylF5cdSHQkqZhIliZBj25AhxnYVOyxICJHjz8AqrZXIcH8ogpDF/Uaq8c4LCu7XVUUcaW7iB9T8RmqR+RDMpINUMsiJmdD8ocMJfozEn4CZiKwB7g9Z50HQl38sFTCzU1HquqqIIyzw2VliH0sN1Yy5iVy4RMF3pH3zOUQ7KpybXnraTQ4BRnMQAJpXqetyIWWUuq4q4koABVE53ZAKQBOpIkgNjcEk981RqvVovGhWqRdZHHBepepYC2HrqiLOxmWa4W5LpYmDXUnVpIEiSg0ZeP7C325TwTwGSmhWeqkln8Wz1By+BirMuqqIs/EWMHFTaiZsxssrqZlQ2sVoTiXj5Uv/y4AiFrwgEsTgiMrnMbUkoolmlGTXVUW8VExEVFB+Qyqc704VF1J938qS8UVNROqFD6mXcBMccXbVeJEMcsYv2z+VZ17BXXg5sp59Zf/Ceqn3QNk5Fxavk3tJnS2J6YWPo4lEIpFIJBKJRCKRSCQSiUQikUgkEolEIpG4H/Wpr5H4Y2mllAMSX87bzcO7/7/7FhdUddXtkPhivnnc46f//fXxL0A7oGqBvge81L4ftnXdbyvU2/aE5XhCDGiqtto2GNq2QrXtEWjatkbd9zXQNm2Dvn29Q8jDd2+O7w///u4BOB6wk00tt2hk12DTjbIfx42sdt1Bopdj11WNBDbtcn4ct/LYtYM8jEcs7JZa03QLDWS3k+PxFT/s4/d/3//rx/rNCPRykPLQdjWqvdwtUlGd5Knp+n23rTHuUY/tKrVHtTQsgWPTywpAtwXq3QbYHCAbHDfYdnitjG8e/4GFR1/uuq3s9ljYbPyGVrZt22Av+0qegMNmldoAsvdx4xJQAYM/ja4FthKy8Rc3Eq+Vf/44/oDv/ZPqFe7QyQr7bd/tg9RG7odtv622st5shr7rB9k3XZR6ODbDsJenYT8MJxw3Q9Psx1Mz7pLUh//+Zzz87e3uAUDdVWgPwE7KTeW9hKLsD0sdzUZ2uxpH2UWpGI5StvVy6IZDh8bXqiXyUCWp3zz+8MvPP4Vvf2AA6grhsFI3vr2KmVaIqbFSVf4QLoonQikBvH338P79+2+RSLxmfgX0EpFCnl8HbQAAAABJRU5ErkJggg==;" vertex="1" parent="7">
                    <mxGeometry x="500" y="120" width="210" height="142.68" as="geometry"/>
                </mxCell>
                <mxCell id="9" value="&lt;div style=&quot;font-family: Consolas, &amp;quot;Courier New&amp;quot;, monospace; font-size: 14px; line-height: 19px;&quot;&gt;&lt;font color=&quot;#000000&quot;&gt;find the Angle kind&lt;/font&gt;&lt;/div&gt;" style="text;html=1;align=center;verticalAlign=middle;resizable=0;points=[];autosize=1;strokeColor=none;fillColor=none;" vertex="1" parent="7">
                    <mxGeometry x="300" y="50" width="170" height="30" as="geometry"/>
                </mxCell>
                <mxCell id="10" value="&lt;font color=&quot;#000000&quot; style=&quot;font-size: 15px;&quot;&gt;Enter Angles dimensions :&lt;/font&gt;" style="text;html=1;align=center;verticalAlign=middle;resizable=0;points=[];autosize=1;strokeColor=none;fillColor=none;fontColor=#FFFFFF;" vertex="1" parent="7">
                    <mxGeometry y="105" width="200" height="30" as="geometry"/>
                </mxCell>
                <mxCell id="11" value="&lt;font color=&quot;#000000&quot;&gt;length A&lt;/font&gt;" style="rounded=1;whiteSpace=wrap;html=1;fontSize=15;fontColor=#FFFFFF;" vertex="1" parent="7">
                    <mxGeometry x="30" y="150" width="120" height="30" as="geometry"/>
                </mxCell>
                <mxCell id="17" value="&lt;font color=&quot;#000000&quot;&gt;length B&lt;/font&gt;" style="rounded=1;whiteSpace=wrap;html=1;fontSize=15;fontColor=#FFFFFF;" vertex="1" parent="7">
                    <mxGeometry x="30" y="220" width="120" height="30" as="geometry"/>
                </mxCell>
                <mxCell id="18" value="&lt;font color=&quot;#000000&quot;&gt;length C&lt;/font&gt;" style="rounded=1;whiteSpace=wrap;html=1;fontSize=15;fontColor=#FFFFFF;" vertex="1" parent="7">
                    <mxGeometry x="30" y="290" width="120" height="30" as="geometry"/>
                </mxCell>
                <mxCell id="19" value="&lt;font color=&quot;#000000&quot;&gt;ENTER&lt;/font&gt;" style="rounded=0;whiteSpace=wrap;html=1;fontSize=15;fontColor=#FFFFFF;" vertex="1" parent="7">
                    <mxGeometry x="50" y="380" width="80" height="30" as="geometry"/>
                </mxCell>
            </root>
        </mxGraphModel>
    </diagram>
</mxfile>